<?xml version="1.0" encoding="iso-8859-1"?>
<!-- Generator: Adobe Illustrator 18.1.1, SVG Export Plug-In . SVG Version: 6.00 Build 0)  -->
<svg xmlns="http://www.w3.org/2000/svg" xmlns:xlink="http://www.w3.org/1999/xlink" version="1.1" id="Capa_1" x="0px" y="0px" viewBox="0 0 494 494" style="enable-background:new 0 0 494 494;" xml:space="preserve" width="512px" height="512px">
<g>
	<g>
		<g>
			<path d="M247,307c80,0,145-65,145-145S327,17,247,17S102,82,102,162S167,307,247,307z M247,60     c56,0,101,46,101,102s-45,101-101,101s-101-45-101-101S191,60,247,60z" fill="#FFFFFF"/>
			<path d="M314,320c-7-2-15-1-21,4l-46,39l-46-39c-6-5-14-6-21-4C150,330,0,381,0,455c0,12,9,22,21,22h451     c12,0,22-10,22-22C494,381,344,330,314,320z M55,433c24-25,80-52,127-68l51,43c8,7,20,7,28,0l51-43c47,16,103,43,127,68H55z" fill="#FFFFFF"/>
		</g>
	</g>
</g>
<g>
</g>
<g>
</g>
<g>
</g>
<g>
</g>
<g>
</g>
<g>
</g>
<g>
</g>
<g>
</g>
<g>
</g>
<g>
</g>
<g>
</g>
<g>
</g>
<g>
</g>
<g>
</g>
<g>
</g>
</svg>
